<svg width="20" height="20" viewBox="0 0 20 20" fill="none" xmlns="http://www.w3.org/2000/svg">
<path d="M2.92857 15.0714L7.57143 9.5M17.7857 15.0714L13.1429 9.5M2 5.78571L8.70893 10.2583C9.30461 10.6554 9.6024 10.854 9.92434 10.9311C10.2089 10.9994 10.5054 10.9994 10.7899 10.9311C11.1119 10.854 11.4097 10.6554 12.0054 10.2583L18.7143 5.78571M4.97143 16H15.7429C16.7829 16 17.303 16 17.7003 15.7976C18.0497 15.6196 18.3338 15.3354 18.5119 14.986C18.7143 14.5888 18.7143 14.0687 18.7143 13.0286V5.97143C18.7143 4.93134 18.7143 4.41128 18.5119 4.01402C18.3338 3.66457 18.0497 3.38046 17.7003 3.20242C17.303 3 16.7829 3 15.7429 3H4.97143C3.93134 3 3.41128 3 3.01402 3.20242C2.66457 3.38046 2.38046 3.66457 2.20242 4.01402C2 4.41128 2 4.93133 2 5.97143V13.0286C2 14.0687 2 14.5888 2.20242 14.986C2.38046 15.3354 2.66457 15.6196 3.01402 15.7976C3.41128 16 3.93133 16 4.97143 16Z" stroke="white" stroke-width="1.4" stroke-linecap="round" stroke-linejoin="round"/>
</svg>
