<svg width="20" height="20" viewBox="0 0 20 20" fill="none" xmlns="http://www.w3.org/2000/svg">
<path d="M10.8763 5.83333C11.6903 5.99214 12.4383 6.39022 13.0247 6.97662C13.6111 7.56301 14.0092 8.31105 14.168 9.125M10.8763 2.5C12.5674 2.68787 14.1443 3.44514 15.3482 4.64751C16.5521 5.84987 17.3114 7.42584 17.5013 9.11667M14.5846 18.3333C7.45096 18.3333 1.66797 12.5503 1.66797 5.41667C1.66797 5.09482 1.67974 4.77572 1.70288 4.45977C1.72943 4.09718 1.7427 3.91589 1.83772 3.75086C1.91642 3.61417 2.05589 3.48455 2.19795 3.41604C2.36948 3.33333 2.56954 3.33333 2.96964 3.33333H5.3174C5.65387 3.33333 5.8221 3.33333 5.96632 3.38871C6.09371 3.43763 6.20714 3.51708 6.29665 3.62008C6.39798 3.73669 6.45547 3.8948 6.57046 4.21101L7.54222 6.88337C7.67597 7.25127 7.74289 7.43522 7.73155 7.60975C7.72155 7.76364 7.66897 7.91173 7.5798 8.03755C7.47869 8.18023 7.31084 8.28094 6.97516 8.48235L5.83464 9.16667C6.83622 11.3741 8.62638 13.1666 10.8346 14.1667L11.519 13.0262C11.7204 12.6904 11.8211 12.5226 11.9637 12.4215C12.0896 12.3323 12.2376 12.2797 12.3916 12.2697C12.5661 12.2584 12.7501 12.3253 13.118 12.4591L15.7903 13.4308C16.1065 13.5458 16.2646 13.6033 16.3812 13.7047C16.4842 13.7942 16.5637 13.9076 16.6126 14.035C16.668 14.1792 16.668 14.3474 16.668 14.6839V17.0317C16.668 17.4317 16.668 17.6318 16.5852 17.8033C16.5167 17.9454 16.3871 18.0849 16.2505 18.1636C16.0854 18.2586 15.9041 18.2718 15.5416 18.2984C15.2256 18.3216 14.9065 18.3333 14.5846 18.3333Z" stroke="white" stroke-width="1.4" stroke-linecap="round" stroke-linejoin="round"/>
</svg>
