<svg width="40" height="40" viewBox="0 0 40 40" fill="none" xmlns="http://www.w3.org/2000/svg">
<path d="M19.9997 37.9166C29.8948 37.9166 37.9163 29.895 37.9163 19.9999C37.9163 10.1048 29.8948 2.08325 19.9997 2.08325C10.1046 2.08325 2.08301 10.1048 2.08301 19.9999C2.08301 29.895 10.1046 37.9166 19.9997 37.9166Z" stroke="#181716" stroke-linecap="round" stroke-linejoin="round"/>
<path d="M4.6325 10.7892C2.1625 18.32 5.61167 24.7192 11.8242 24.8092C18.0358 24.9 20.3383 18.8725 20.0075 15.9817C19.1308 8.36251 24.9425 8.81417 25.6442 8.82001C37.575 10.49 38.8467 23.595 35.5892 28.8308" stroke="#181716" stroke-linecap="round" stroke-linejoin="round"/>
<path d="M35.5167 28.9583C37.9867 21.4275 34.5375 15.0283 28.325 14.9383C22.1133 14.8475 19.81 20.875 20.1417 23.7658C21.0175 31.385 15.2067 30.9333 14.505 30.9275C2.57416 29.2575 1.3025 16.1525 4.56 10.9167M6.18583 22.3392H17.7067M4.44166 19.36H19.4958M3.85333 16.38H20.0358M4 13.4008H19.9783M4.85833 10.4208H21.1725M7.22166 7.44167H32.7783M11.08 4.46167H28.9208M30.5775 10.4208H35.1408M34.1025 13.4008H36.6567M35.8858 16.38H37.5475M36.815 19.36H37.905" stroke="#181716" stroke-linecap="round" stroke-linejoin="round"/>
</svg>
